<svg xmlns="http://www.w3.org/2000/svg" x="0px" y="0px" width="200" height="200" viewBox="0,0,256,256">
<g transform="translate(-19.2,-19.2) scale(1.15,1.15)"><g fill="none" fill-rule="nonzero" stroke="none" stroke-width="1" stroke-linecap="butt" stroke-linejoin="miter" stroke-miterlimit="10" stroke-dasharray="" stroke-dashoffset="0" font-family="none" font-weight="none" font-size="none" text-anchor="none" style="mix-blend-mode: normal"><g transform="scale(2.56,2.56)"><path d="M75,27c0,-8 -2.64,-11 -12,-14c-7,-8 -17.708,-6 -19.81,-4c-5.255,5 -12.957,2.721 -20.07,14c-3.153,5 -6.222,9 -4.12,17c1.71,6.508 -2,18 6,20c5.309,1.327 16.331,-15.19 18.207,-22.567c0.691,-2.717 2.986,-4.79 5.872,-5.318l22.391,11.885c1.862,-0.341 7.53,-9 3.53,-17z" fill="#b77748"></path><path d="M25.593,61.07c-0.286,0 -0.565,-0.032 -0.835,-0.101c-6.228,-1.557 -6.224,-8.037 -6.22,-13.755c0.001,-2.585 0.003,-5.027 -0.505,-6.961c-2.073,-7.888 0.688,-12.218 3.613,-16.801l0.627,-0.986c4.643,-7.361 9.523,-9.171 13.829,-10.768c2.462,-0.913 4.588,-1.701 6.397,-3.423c1.212,-1.153 4.504,-2.227 8.447,-2.044c4.916,0.225 9.386,2.318 12.619,5.9c9.546,3.103 12.381,6.438 12.433,14.635c2.865,5.968 0.64,11.7 -0.461,13.905c-0.913,1.828 -2.479,4.054 -3.889,4.313c-0.221,0.04 -0.449,0.005 -0.648,-0.101l-22.071,-11.716c-2.34,0.549 -4.187,2.29 -4.753,4.512c-1.706,6.71 -12.104,23.39 -18.583,23.391zM50.073,8.211c-3.136,0 -5.516,0.868 -6.194,1.514c-2.107,2.005 -4.523,2.901 -7.081,3.85c-4.204,1.559 -8.552,3.171 -12.833,9.959l-0.632,0.995c-2.915,4.567 -5.217,8.175 -3.366,15.217c0.574,2.185 0.572,4.872 0.571,7.47c-0.004,5.47 -0.007,10.637 4.704,11.814c4.425,1.081 15.138,-14.539 16.996,-21.844c0.784,-3.082 3.398,-5.458 6.661,-6.055c0.221,-0.04 0.449,-0.005 0.648,0.101l21.959,11.656c0.549,-0.415 1.719,-1.768 2.682,-4.072c0.953,-2.278 2.209,-6.785 -0.083,-11.369c-0.069,-0.138 -0.105,-0.292 -0.105,-0.447c0,-7.487 -2.324,-10.169 -11.306,-13.048c-0.173,-0.055 -0.327,-0.157 -0.447,-0.293c-3.697,-4.226 -8.235,-5.285 -11.392,-5.43c-0.264,-0.012 -0.526,-0.018 -0.782,-0.018zM76,27h0.01z" fill="#000000"></path><circle cx="71.5" cy="61.5" r="7.5" fill="#fed5b3"></circle><path d="M71.5,70c-4.687,0 -8.5,-3.813 -8.5,-8.5c0,-4.687 3.813,-8.5 8.5,-8.5c4.687,0 8.5,3.813 8.5,8.5c0,4.687 -3.813,8.5 -8.5,8.5zM71.5,55c-3.584,0 -6.5,2.916 -6.5,6.5c0,3.584 2.916,6.5 6.5,6.5c3.584,0 6.5,-2.916 6.5,-6.5c0,-3.584 -2.916,-6.5 -6.5,-6.5z" fill="#000000"></path><path d="M72.749,37.023c-2.847,-26.168 -45.581,-28.775 -47.752,1.984c0,0 -0.915,6.579 -0.991,15.009c-0.487,-0.099 -0.99,-0.151 -1.506,-0.151c-4.142,0 -7.5,3.346 -7.5,7.473c0,4.127 3.358,7.473 7.5,7.473c0.833,0 1.631,-0.141 2.38,-0.39c0.647,4.418 1.714,8.678 3.412,12.228c6.619,13.836 36.072,16.338 41.703,0.119c5.623,-16.195 4.084,-31.527 2.754,-43.745z" fill="#fed5b3"></path><path d="M50.75,92.997c-9.036,0.001 -19.54,-3.932 -23.36,-11.917c-1.475,-3.082 -2.593,-6.918 -3.329,-11.415c-0.517,0.098 -1.038,0.146 -1.561,0.146c-4.687,0 -8.5,-3.801 -8.5,-8.474c0,-4.672 3.813,-8.473 8.5,-8.473c0.174,0 0.349,0.005 0.522,0.016c0.141,-7.86 0.976,-13.948 0.984,-14.012c1.183,-16.792 13.614,-23.002 23.898,-23.198c0.173,-0.003 0.348,-0.005 0.521,-0.005c11.52,0 23.791,7.221 25.317,21.248v0c1.263,11.601 2.992,27.489 -2.804,44.182c-2.398,6.908 -9.315,11.34 -18.504,11.855c-0.553,0.031 -1.117,0.047 -1.684,0.047zM24.88,67.421c0.184,0 0.365,0.051 0.524,0.148c0.252,0.155 0.422,0.414 0.465,0.707c0.7,4.774 1.818,8.792 3.325,11.94c3.681,7.694 14.413,11.222 23.129,10.737c8.351,-0.469 14.604,-4.399 16.728,-10.515c5.647,-16.268 3.946,-31.896 2.704,-43.309v0c-1.42,-13.045 -13.079,-19.654 -23.812,-19.46c-9.441,0.179 -20.854,5.893 -21.949,21.406c-0.016,0.133 -0.914,6.687 -0.987,14.948c-0.003,0.299 -0.139,0.581 -0.371,0.769c-0.232,0.188 -0.535,0.264 -0.829,0.202c-0.426,-0.087 -0.865,-0.131 -1.307,-0.131c-3.584,0 -6.5,2.903 -6.5,6.473c0,3.57 2.916,6.474 6.5,6.474c0.693,0 1.388,-0.114 2.064,-0.34c0.103,-0.032 0.209,-0.049 0.316,-0.049z" fill="#000000"></path><circle cx="64" cy="42" r="8.5" fill="#ffffff"></circle><path d="M64,51c-4.963,0 -9,-4.038 -9,-9c0,-4.962 4.037,-9 9,-9c4.963,0 9,4.038 9,9c0,4.962 -4.037,9 -9,9zM64,34c-4.411,0 -8,3.589 -8,8c0,4.411 3.589,8 8,8c4.411,0 8,-3.589 8,-8c0,-4.411 -3.589,-8 -8,-8z" fill="#000000"></path><circle cx="40" cy="42" r="8.5" fill="#ffffff"></circle><path d="M40,51c-4.963,0 -9,-4.038 -9,-9c0,-4.962 4.037,-9 9,-9c4.963,0 9,4.038 9,9c0,4.962 -4.037,9 -9,9zM40,34c-4.411,0 -8,3.589 -8,8c0,4.411 3.589,8 8,8c4.411,0 8,-3.589 8,-8c0,-4.411 -3.589,-8 -8,-8z" fill="#000000"></path><path d="M57,64h-7.5c-0.276,0 -0.5,-0.224 -0.5,-0.5c0,-0.276 0.224,-0.5 0.5,-0.5h6.807l-3.781,-11.342c-0.087,-0.262 0.055,-0.545 0.316,-0.633c0.263,-0.088 0.545,0.055 0.633,0.316l4,12c0.051,0.152 0.025,0.32 -0.069,0.45c-0.094,0.132 -0.245,0.209 -0.406,0.209z" fill="#000000"></path><circle cx="40.5" cy="42.5" r="1.5" fill="#000000"></circle><circle cx="63.5" cy="42.5" r="1.5" fill="#000000"></circle><path d="M49.312,78.265c-3.613,0 -6.386,-0.766 -6.449,-0.784c-0.265,-0.075 -0.419,-0.353 -0.343,-0.617c0.075,-0.266 0.353,-0.426 0.617,-0.344c0.137,0.038 13.704,3.773 19.435,-5.776c0.143,-0.237 0.452,-0.314 0.686,-0.172c0.237,0.142 0.314,0.449 0.172,0.686c-3.447,5.742 -9.476,7.007 -14.118,7.007z" fill="#000000"></path><g fill="#000000"><path d="M71.5,34c-0.183,0 -0.359,-0.101 -0.447,-0.276c-1.86,-3.721 -7.578,-4.721 -7.635,-4.73c-0.272,-0.046 -0.456,-0.303 -0.411,-0.576c0.046,-0.272 0.311,-0.46 0.575,-0.411c0.256,0.042 6.275,1.09 8.365,5.27c0.123,0.247 0.023,0.547 -0.224,0.671c-0.072,0.035 -0.148,0.052 -0.223,0.052z"></path></g><g fill="#000000"><path d="M32.5,34c-0.088,0 -0.177,-0.023 -0.257,-0.071c-0.237,-0.142 -0.314,-0.449 -0.172,-0.686c3.11,-5.183 10.131,-5.243 10.429,-5.243c0.276,0 0.5,0.224 0.5,0.5c0,0.276 -0.224,0.5 -0.5,0.5c-0.066,0 -6.756,0.064 -9.571,4.757c-0.094,0.157 -0.26,0.243 -0.429,0.243z"></path></g><g fill="#000000"><path d="M66.499,71c-0.233,0 -0.441,-0.164 -0.489,-0.402c-0.285,-1.424 -0.845,-2.351 -1.664,-2.754c-1.191,-0.589 -2.608,0.098 -2.623,0.104c-0.247,0.119 -0.547,0.021 -0.67,-0.227c-0.122,-0.246 -0.022,-0.546 0.224,-0.669c0.076,-0.037 1.859,-0.915 3.503,-0.11c1.117,0.546 1.861,1.71 2.211,3.46c0.055,0.271 -0.121,0.534 -0.393,0.588c-0.033,0.007 -0.066,0.01 -0.099,0.01z"></path></g><g fill="#000000"><path d="M51.196,88.101c-0.512,0 -1.033,-0.013 -1.563,-0.038c-0.276,-0.013 -0.489,-0.247 -0.476,-0.522c0.014,-0.276 0.251,-0.512 0.522,-0.476c1.817,0.087 3.519,0.02 5.063,-0.197c0.269,-0.034 0.525,0.151 0.564,0.426c0.038,0.273 -0.152,0.526 -0.426,0.564c-1.151,0.162 -2.386,0.243 -3.684,0.243z"></path></g><g fill="#000000"><path d="M58.033,87.165c-0.21,0 -0.404,-0.133 -0.475,-0.342c-0.087,-0.263 0.055,-0.546 0.316,-0.633c5.683,-1.891 6.711,-6.051 6.752,-6.228c0.063,-0.268 0.336,-0.436 0.599,-0.374c0.269,0.062 0.438,0.328 0.376,0.597c-0.045,0.198 -1.17,4.877 -7.41,6.954c-0.052,0.018 -0.105,0.026 -0.158,0.026z"></path></g></g></g></g>
</svg>